<?xml version="1.0" encoding="UTF-8"?>
<svg id="Layer_2" data-name="Layer 2" xmlns="http://www.w3.org/2000/svg" viewBox="0 0 726 143">
  <defs>
    <style>
      .cls-1 {
        fill: #f75757;
      }
    </style>
  </defs>
  <path d="M1.02,2.81h24.6v16.8C30.22,7.81,41.62.41,56.82.41c25.2,0,44.2,19.6,44.2,52.4s-19.8,52.4-44.8,52.4c-15.2,0-26-7.2-30.6-17.4v55H1.02V2.81ZM51.02,84.61c16,0,25.6-12.8,25.6-31.8s-9.6-31.8-25.6-31.8-25.4,12.8-25.4,31.8,9.6,31.8,25.4,31.8Z"/>
  <path d="M112.02,70.81c0-20.6,16.2-34,35.6-34,11.6,0,21.4,4.8,25.2,11.4v-6c0-14.2-8.8-22.2-24-22.2-9,0-19.8,3.8-29.8,11V11.01C127.22,5.01,140.82.41,156.42.41c26.6,0,41,15.4,41,37.2v65.2h-24.6v-11c-4,7.4-14,13.2-25.8,13.2-19.8,0-35-13.6-35-34.2ZM153.62,89.41c12.2,0,19.2-8.8,19.2-18.8s-7-18.6-19.2-18.6-19.4,8.6-19.4,18.6,7,18.8,19.4,18.8Z"/>
  <path d="M216.62,2.81h24.6v18c3.8-14.2,13.6-19.8,23.2-19.8,2.2,0,4.6.2,6,.8v22c-2.6-.6-5.6-1-8.6-1-13.2,0-20.6,11.2-20.6,24.4v55.6h-24.6V2.81Z"/>
  <path d="M275.42,70.81c0-20.6,16.2-34,35.6-34,11.6,0,21.4,4.8,25.2,11.4v-6c0-14.2-8.8-22.2-24-22.2-9,0-19.8,3.8-29.8,11V11.01c8.2-6,21.8-10.6,37.4-10.6,26.6,0,41,15.4,41,37.2v65.2h-24.6v-11c-4,7.4-14,13.2-25.8,13.2-19.8,0-35-13.6-35-34.2ZM317.02,89.41c12.2,0,19.2-8.8,19.2-18.8s-7-18.6-19.2-18.6-19.4,8.6-19.4,18.6,7,18.8,19.4,18.8Z"/>
  <path d="M422.62.01c6.4,0,11.2.8,15.6,2.6v19c-4.2-1.6-7.4-2.4-11.6-2.4-9.8,0-14.8,5.8-14.8,16.2v7.4h23.6v19.4h-23.6l-.02,40.96h-25l.42-40.96h-17.8v-19.4h17.8v-6.6C387.22,13.01,399.42.01,422.62.01Z"/>
  <path d="M494.82,18.54h24.6v84.63h-24.6V18.54Z"/>
  <path d="M540.21,2.81h24.6v15.8c4.4-12.2,15.6-18.2,27.6-18.2,13.6,0,25,7,30,19.8,4.4-13.2,17.6-19.8,30.2-19.8,18.4,0,32.6,13,32.6,35v67.4h-24.6v-62.2c0-13-6.4-20.8-16.8-20.8-11,0-18.8,8-18.8,19.2v63.8h-24.6v-62.2c0-13-6.4-20.8-16.8-20.8-11,0-18.8,8-18.8,19.2v63.8h-24.6V2.81Z"/>
  <rect x="454.8" y="39.18" width="24" height="64"/>
  <circle class="cls-1" cx="708.3" cy="86.68" r="16.5"/>
</svg>